<svg width="693" height="270" viewBox="0 0 693 270" fill="none" xmlns="http://www.w3.org/2000/svg">
<path d="M464.328 237.302C457.068 237.302 450.478 235.459 444.559 231.773C438.751 228.087 434.116 223.117 430.653 216.862C427.302 210.496 425.627 203.403 425.627 195.585C425.627 187.655 427.302 180.563 430.653 174.308C434.116 167.942 438.751 162.915 444.559 159.23C450.478 155.432 457.068 153.533 464.328 153.533C470.471 153.533 475.888 154.874 480.579 157.554C485.382 160.123 489.179 163.697 491.971 168.277C494.764 172.856 496.16 178.05 496.16 183.858V206.978C496.16 212.785 494.764 217.979 491.971 222.558C489.291 227.138 485.549 230.768 480.747 233.448C475.944 236.017 470.471 237.302 464.328 237.302ZM467.344 219.878C474.157 219.878 479.63 217.588 483.762 213.009C488.006 208.429 490.129 202.566 490.129 195.418C490.129 190.615 489.179 186.371 487.28 182.685C485.382 178.999 482.701 176.151 479.239 174.14C475.888 172.018 471.923 170.957 467.344 170.957C462.876 170.957 458.911 172.018 455.449 174.14C452.098 176.151 449.417 178.999 447.407 182.685C445.508 186.371 444.559 190.615 444.559 195.418C444.559 200.22 445.508 204.464 447.407 208.15C449.417 211.836 452.098 214.74 455.449 216.862C458.911 218.873 462.876 219.878 467.344 219.878ZM490.956 235.626C489.851 235.626 488.956 234.731 488.956 233.626V214.014L492.139 194.412L488.956 174.978V157.209C488.956 156.104 489.851 155.209 490.956 155.209H505.385C506.489 155.209 507.385 156.104 507.385 157.209V233.626C507.385 234.731 506.489 235.626 505.385 235.626H490.956Z" fill="#2D9AFE"/>
<path d="M373.845 237.302C366.586 237.302 359.996 235.459 354.076 231.773C348.268 228.087 343.633 223.117 340.171 216.862C336.82 210.496 335.145 203.403 335.145 195.585C335.145 187.655 336.82 180.563 340.171 174.308C343.633 167.942 348.268 162.915 354.076 159.23C359.996 155.432 366.586 153.533 373.845 153.533C379.988 153.533 385.405 154.874 390.096 157.554C394.899 160.123 398.697 163.697 401.489 168.277C404.281 172.856 405.677 178.05 405.677 183.858V206.978C405.677 212.785 404.281 217.979 401.489 222.558C398.808 227.138 395.067 230.768 390.264 233.448C385.461 236.017 379.988 237.302 373.845 237.302ZM376.861 219.878C383.674 219.878 389.147 217.588 393.28 213.009C397.524 208.429 399.646 202.566 399.646 195.418C399.646 190.615 398.697 186.371 396.798 182.685C394.899 178.999 392.219 176.151 388.756 174.14C385.405 172.018 381.44 170.957 376.861 170.957C372.393 170.957 368.428 172.018 364.966 174.14C361.615 176.151 358.935 178.999 356.924 182.685C355.026 186.371 354.076 190.615 354.076 195.418C354.076 200.22 355.026 204.464 356.924 208.15C358.935 211.836 361.615 214.74 364.966 216.862C368.428 218.873 372.393 219.878 376.861 219.878ZM400.473 235.626C399.369 235.626 398.473 234.731 398.473 233.626V214.014L401.656 194.412L398.473 174.978V157.209C398.473 156.104 399.369 155.209 400.473 155.209H414.902C416.007 155.209 416.902 156.104 416.902 157.209V233.626C416.902 234.731 416.007 235.626 414.902 235.626H400.473Z" fill="#2D9AFE"/>
<path d="M204.568 235.626C203.464 235.626 202.568 234.731 202.568 233.626V157.209C202.568 156.104 203.464 155.209 204.568 155.209H218.997C220.102 155.209 220.997 156.104 220.997 157.209V233.626C220.997 234.731 220.102 235.626 218.997 235.626H204.568ZM258.012 235.626C256.908 235.626 256.012 234.731 256.012 233.626V187.711C256.012 182.35 254.337 178.217 250.986 175.313C247.636 172.298 243.503 170.79 238.589 170.79C235.238 170.79 232.222 171.46 229.542 172.8C226.973 174.14 224.907 176.095 223.343 178.664C221.779 181.121 220.997 184.137 220.997 187.711L213.793 183.69C213.793 177.547 215.134 172.242 217.814 167.774C220.495 163.306 224.125 159.844 228.704 157.387C233.283 154.818 238.421 153.533 244.117 153.533C249.814 153.533 254.951 154.762 259.531 157.219C264.11 159.676 267.74 163.139 270.421 167.606C273.101 172.074 274.441 177.435 274.441 183.69V233.626C274.441 234.731 273.546 235.626 272.441 235.626H258.012ZM311.456 235.626C310.352 235.626 309.456 234.731 309.456 233.626V187.711C309.456 182.35 307.781 178.217 304.43 175.313C301.08 172.298 296.947 170.79 292.033 170.79C288.794 170.79 285.834 171.46 283.153 172.8C280.473 174.14 278.351 176.095 276.787 178.664C275.223 181.121 274.441 184.137 274.441 187.711L264.054 183.69C264.613 177.547 266.4 172.242 269.415 167.774C272.431 163.306 276.284 159.844 280.975 157.387C285.778 154.818 291.028 153.533 296.724 153.533C302.532 153.533 307.781 154.762 312.472 157.219C317.163 159.676 320.905 163.139 323.697 167.606C326.489 172.074 327.885 177.435 327.885 183.69V233.626C327.885 234.731 326.99 235.626 325.885 235.626H311.456Z" fill="#373737"/>
<path d="M155.725 237.302C148.912 237.302 142.825 235.794 137.464 232.778C132.214 229.762 128.081 225.63 125.066 220.38C122.162 215.019 120.71 208.876 120.71 201.951V157.209C120.71 156.104 121.605 155.209 122.71 155.209H137.139C138.243 155.209 139.139 156.104 139.139 157.209V201.114C139.139 205.023 139.753 208.374 140.982 211.166C142.322 213.846 144.221 215.913 146.678 217.365C149.247 218.817 152.263 219.543 155.725 219.543C161.086 219.543 165.163 217.979 167.955 214.852C170.859 211.613 172.311 207.033 172.311 201.114V157.209C172.311 156.104 173.206 155.209 174.311 155.209H188.74C189.845 155.209 190.74 156.104 190.74 157.209V201.951C190.74 208.988 189.232 215.187 186.217 220.548C183.313 225.797 179.236 229.93 173.986 232.946C168.737 235.85 162.65 237.302 155.725 237.302Z" fill="#373737"/>
<path d="M93.4175 234.074C92.0855 234.779 90.4826 233.813 90.4826 232.306V117C90.4826 115.895 91.378 115 92.4826 115H106.912C108.016 115 108.912 115.895 108.912 117V224.677C108.912 225.418 108.502 226.098 107.846 226.445L93.4175 234.074Z" fill="#373737"/>
<path d="M43.0568 237.302C36.9138 237.302 31.441 236.017 26.6383 233.448C21.8356 230.768 18.0381 227.138 15.2458 222.558C12.5652 217.979 11.2249 212.785 11.2249 206.978V183.858C11.2249 178.05 12.6211 172.856 15.4133 168.277C18.2056 163.697 22.0031 160.123 26.8058 157.554C31.6085 154.874 37.0255 153.533 43.0568 153.533C50.3167 153.533 56.8506 155.432 62.6586 159.23C68.5782 162.915 73.2133 167.942 76.5641 174.308C80.0265 180.563 81.7577 187.655 81.7577 195.585C81.7577 203.403 80.0265 210.496 76.5641 216.862C73.2133 223.117 68.5782 228.087 62.6586 231.773C56.8506 235.459 50.3167 237.302 43.0568 237.302ZM40.0412 219.878C44.5088 219.878 48.418 218.873 51.7687 216.862C55.2311 214.74 57.9117 211.836 59.8104 208.15C61.8209 204.464 62.8261 200.22 62.8261 195.418C62.8261 190.615 61.8209 186.371 59.8104 182.685C57.9117 178.999 55.2311 176.151 51.7687 174.14C48.418 172.018 44.5088 170.957 40.0412 170.957C35.5735 170.957 31.6085 172.018 28.1461 174.14C24.6837 176.151 22.0031 178.999 20.1043 182.685C18.2056 186.371 17.2562 190.615 17.2562 195.418C17.2562 200.22 18.2056 204.464 20.1043 208.15C22.0031 211.836 24.6837 214.74 28.1461 216.862C31.6085 218.873 35.5735 219.878 40.0412 219.878ZM2.93544 267.58C1.60345 268.285 -7.62939e-06 267.319 -7.62939e-06 265.812V157.209C-7.62939e-06 156.104 0.895423 155.209 1.99999 155.209H16.429C17.5336 155.209 18.429 156.104 18.429 157.209V176.821L15.2458 196.423L18.429 215.857V258.177C18.429 258.918 18.0193 259.598 17.3644 259.945L2.93544 267.58Z" fill="#373737"/>
<path d="M552.841 244.61C549.85 245.483 542.133 247.645 534.854 248.923C533.899 249.091 533.187 249.906 533.169 250.876L532.858 267.314C532.843 268.073 533.647 268.571 534.32 268.219L553.082 258.422C553.744 258.076 554.158 257.391 554.156 256.644L554.131 245.577C554.129 244.906 553.485 244.422 552.841 244.61Z" fill="#2D9AFE"/>
<path d="M533.709 205.964C584.299 192.724 582.875 189.347 582.875 189.347C582.875 189.347 662.028 124.894 643.249 12.6054C542.084 83.5378 533.709 205.964 533.709 205.964Z" fill="#2D9AFE"/>
<path d="M556.611 199.827C607.201 186.587 576.108 194.603 576.108 194.603C576.108 194.603 684.93 118.757 666.151 6.46875C564.986 77.4011 556.611 199.827 556.611 199.827Z" fill="#2D9AFE" fill-opacity="0.6"/>
<path d="M580.751 193.358C631.341 180.118 570.704 197.956 570.704 197.956C570.704 197.956 709.069 112.289 690.291 0C589.126 70.9323 580.751 193.358 580.751 193.358Z" fill="#2D9AFE" fill-opacity="0.6"/>
<path d="M618.923 175.236C601.015 228.42 552.661 243.769 532.931 246.239C532.931 246.239 531.583 231.436 533.783 205.096C584.373 191.856 618.923 175.236 618.923 175.236Z" fill="#2D9AFE"/>
</svg>
