<svg width="300" height="300" viewBox="0 0 300 300" fill="none" xmlns="http://www.w3.org/2000/svg">
<path d="M103.175 241.03C100.613 241.773 94.6373 243.43 88.9261 244.454C87.9713 244.625 87.2594 245.439 87.241 246.409L86.9966 259.314C86.9822 260.073 87.7861 260.571 88.4593 260.219L103.414 252.41C104.076 252.064 104.49 251.379 104.489 250.632L104.469 241.998C104.467 241.326 103.82 240.843 103.175 241.03Z" fill="#2D9AFE"/>
<path d="M87.6904 209.212C129.253 198.334 128.083 195.56 128.083 195.56C128.083 195.56 193.112 142.608 177.684 50.3562C94.5708 108.631 87.6904 209.212 87.6904 209.212Z" fill="#2D9AFE"/>
<path d="M106.506 204.17C148.069 193.293 122.524 199.878 122.524 199.878C122.524 199.878 211.927 137.567 196.5 45.3145C113.386 103.59 106.506 204.17 106.506 204.17Z" fill="#2D9AFE" fill-opacity="0.6"/>
<path d="M126.338 198.856C167.901 187.978 118.084 202.633 118.084 202.633C118.084 202.633 231.76 132.252 216.332 40C133.219 98.2753 126.338 198.856 126.338 198.856Z" fill="#2D9AFE" fill-opacity="0.6"/>
<path d="M157.698 183.967C142.986 227.662 103.26 240.272 87.0512 242.3C87.0512 242.3 85.9438 230.139 87.751 208.499C129.314 197.621 157.698 183.967 157.698 183.967Z" fill="#2D9AFE"/>
</svg>
